# xmcd
#
# Track frame offsets:
#	150
#	18824
#	35652
#	53156
#	71590
#	89351
#	104563
#	123196
#	142729
#	157328
#	176192
#	199034
#
# Disc length: 2933 seconds
#
# Revision: 1
# Processed by: cddbd v1.4PL0 Copyright (c) Steve Scherf et al.
# Submitted via: audiograbber 1.81.03
#
DISCID=a50b730c
DTITLE=София Ротару - Я тебя по-прежнему люблю
DYEAR=2002
DGENRE=Pop
TTITLE0=На берегу нашей первой любви
TTITLE1=Девчонка с гитарой
TTITLE2=Ты скажешь мне прости
TTITLE3=Не спросишь
TTITLE4=Другая
TTITLE5=Костер догорает
TTITLE6=Первый снег пушистый
TTITLE7=Забыть
TTITLE8=Жизнь моя, моя любовь
TTITLE9=Я тебя по-прежнему люблю
TTITLE10=Не спросишь (remix)
TTITLE11=Жизнь моя, моя любовь (remix) 
EXTD=
EXTT0=
EXTT1=
EXTT2=
EXTT3=
EXTT4=
EXTT5=
EXTT6=
EXTT7=
EXTT8=
EXTT9=
EXTT10=
EXTT11=
PLAYORDER=
